<svg width="72" height="68" viewBox="0 0 72 68" fill="none" xmlns="http://www.w3.org/2000/svg">
<path d="M0.945693 0.879002C0.45466 3.05894 0.327355 4.78179 0.418287 7.15511C0.545592 10.1086 0.96388 11.9897 2.00051 14.0465C2.92801 15.8924 3.92826 17.1231 5.38318 18.1251C6.65623 19.0217 6.63804 19.2151 5.32862 18.7932C4.00101 18.3537 2.81889 17.5274 1.36398 15.9979L0 14.5739L0.109118 15.787C0.436474 19.6722 1.49129 22.7311 3.45542 25.5439C4.91033 27.6184 7.69285 29.6577 9.98434 30.3082C10.7118 30.5191 10.73 30.5367 10.3481 30.6949C10.1116 30.7828 9.29326 30.8532 8.51124 30.8532C6.80172 30.8532 5.83784 30.484 4.34655 29.2182C3.76459 28.726 3.27355 28.3743 3.27355 28.4447C3.27355 28.9193 4.1465 31.2751 4.67391 32.242C6.31068 35.2833 9.42056 37.6215 13.1851 38.606C14.6764 39.0103 17.5863 39.274 19.1503 39.1686L20.4597 39.0807L19.6413 39.4674C18.8957 39.8366 18.5865 39.8718 15.9495 39.8542C12.6577 39.8542 12.7305 39.7135 15.1675 41.3133C18.8775 43.7394 23.7515 44.1262 27.0432 42.2451C27.3887 42.0517 27.6979 41.8935 27.7343 41.8935C27.9707 41.8935 26.7522 45.4623 25.9884 46.9566C25.2791 48.363 24.8245 49.031 23.9333 49.8749C22.533 51.2285 21.3145 51.8263 19.0775 52.2482C17.168 52.6174 17.1134 52.4943 19.6413 53.4261C20.878 53.8656 21.2235 53.9183 23.3695 53.9183C26.4612 53.9359 27.3705 53.6194 29.1346 51.9142C30.2986 50.789 30.3531 50.7715 30.244 51.2813C30.0258 52.5646 29.753 53.3206 29.0983 54.6567C28.2253 56.3971 26.2612 58.5067 24.2425 59.8604C23.515 60.3702 22.9694 60.8273 23.0422 60.8976C23.1331 60.9679 23.7878 61.1086 24.5153 61.2141C27.1341 61.6008 30.0258 60.7042 31.6807 58.9814L32.4991 58.1375L32.7174 60.0362C32.9902 62.4623 33.6267 64.607 34.6087 66.5057C35.3726 67.9473 35.4089 68 36.0273 68C36.6274 68 36.6638 67.9473 37.4822 66.3826C38.4461 64.5367 39.028 62.4974 39.319 59.9307L39.5191 58.1375L40.3375 58.9814C41.9924 60.7042 44.8841 61.6008 47.5029 61.2141C48.2304 61.1086 48.8851 60.9679 48.976 60.8976C49.0488 60.8273 48.5032 60.3702 47.7757 59.878C44.5931 57.7332 42.338 54.5863 41.8651 51.6505L41.7196 50.7539L42.9017 51.9142C44.6113 53.6019 45.557 53.9359 48.5577 53.9359C50.8674 53.9359 51.7403 53.7601 54.0136 52.8283L54.6502 52.5646L52.977 52.2482C51.122 51.9142 50.1036 51.5098 48.9942 50.7187C47.2665 49.5057 45.4842 46.5346 44.6658 43.5109C44.4112 42.6318 44.2475 41.8935 44.2657 41.8935C44.3021 41.8935 44.684 42.0869 45.1205 42.3154C46.7391 43.1593 47.7757 43.3878 50.0126 43.3702C52.9588 43.3526 54.8684 42.7022 57.6509 40.7859C58.1965 40.3992 58.7057 40.03 58.7967 39.9597C58.8694 39.9069 57.6327 39.8542 56.0687 39.8542C53.4499 39.8718 53.1225 39.8366 52.3769 39.485L51.5585 39.0807L52.8133 39.1686C54.5956 39.3092 57.6145 38.9576 59.3423 38.4478C63.7252 37.1293 66.8351 34.2813 68.199 30.3082C68.5082 29.4467 68.7446 28.6556 68.7446 28.5502C68.7446 28.4271 68.2354 28.7611 67.6171 29.2534C66.0349 30.5367 65.1983 30.8532 63.5069 30.8532C62.7249 30.8532 61.9065 30.7828 61.6701 30.6949C61.2882 30.5367 61.3064 30.5191 62.0338 30.3082C64.6345 29.5698 67.7626 27.0558 69.2902 24.4891C70.7088 22.1334 71.6363 19.0393 71.9091 15.8221L72 14.6091L70.3269 16.2792C68.6173 17.9669 67.3625 18.7404 66.0167 18.9514C65.4529 19.0393 65.4165 19.0217 65.7257 18.8283C66.7805 18.1427 68.0172 17.0703 68.6173 16.2968C69.5994 15.1013 70.6724 12.8687 71.1271 11.1106C71.8181 8.42089 71.7999 4.11375 71.0907 0.949322L70.8906 -3.70747e-06L70.0541 1.38883C68.9629 3.23474 67.3079 5.25646 65.4529 7.06721C61.1973 11.181 56.6143 13.9059 50.6492 15.8749C49.1579 16.3847 47.6302 16.9297 47.2483 17.1231C46.8846 17.2989 46.4845 17.4571 46.3935 17.4571C46.2844 17.4571 45.9571 17 45.6661 16.4199C44.5203 14.2399 41.8833 12.1127 39.2645 11.304C38.1733 10.9524 37.5368 10.8645 35.9182 10.8645C33.6085 10.8645 32.7174 11.0755 30.6441 12.06C28.88 12.9038 26.9159 14.7146 25.9884 16.3495L25.37 17.4219L24.7335 17.1055C24.3698 16.9297 22.8603 16.3847 21.369 15.8749C12.9124 13.062 6.03789 7.9638 2.01869 1.49431L1.12756 0.0527319L0.945693 0.879002ZM3.98282 6.45191C5.85602 8.59669 8.5658 10.8821 11.4574 12.7456C14.4036 14.6443 17.077 15.9276 20.3506 17C21.6782 17.4395 23.2604 18.0196 23.8424 18.2658L24.9154 18.7404L24.7699 19.4612C24.5153 20.8325 24.6426 23.6277 24.9881 24.6649C25.6792 26.6339 26.5522 28.0579 27.898 29.3413C30.0258 31.3806 32.2445 32.3475 35.1907 32.5233C38.4824 32.6991 41.2832 31.6794 43.6656 29.4116C46.0298 27.1437 46.9937 24.9638 47.0119 21.8521C47.0119 20.8325 46.9573 19.7425 46.8846 19.4261C46.7391 18.8459 46.7573 18.8283 47.7575 18.4064C48.3031 18.1779 50.0126 17.5626 51.5221 17.0703C58.7239 14.6794 64.3617 10.8294 69.6176 4.71147L70.2177 4.00827L70.1268 6.82109C70.0359 10.091 69.7994 11.2161 68.6537 13.5191C67.2534 16.332 65.1255 17.9493 61.8156 18.7404L60.1061 19.1624L61.2155 19.7073C63.707 20.9379 66.8351 20.7094 69.1993 19.1624C69.5994 18.8987 69.9449 18.758 69.9813 18.8459C70.0904 19.1799 68.8901 22.3444 68.1445 23.6101C67.0169 25.5615 65.0346 27.4074 63.1068 28.3392C61.4883 29.1127 59.6332 29.5698 58.1056 29.5874C57.6146 29.605 56.8689 29.6577 56.487 29.728L55.7595 29.8511L57.76 30.7652C60.4516 31.9959 61.6519 32.2771 63.9616 32.1892C65.7439 32.1365 65.7984 32.1365 65.6166 32.4705C65.5075 32.6639 64.7982 33.4199 64.0344 34.1758C62.434 35.7053 60.5426 36.7249 58.1056 37.3402C56.196 37.8325 52.4678 37.8676 50.1217 37.4281C49.2488 37.2699 48.4668 37.1644 48.4304 37.2172C48.194 37.4281 49.3579 39.274 50.0308 39.8014C50.7946 40.3816 52.5951 41.1727 53.1589 41.1903C53.7772 41.1903 53.4499 41.5067 52.6133 41.7177C49.1579 42.5615 46.2117 41.8232 43.6292 39.485L42.3925 38.3423L42.4835 39.2916C43.0836 45.4623 45.1932 49.8749 48.7396 52.3185C49.1942 52.6174 49.1761 52.635 47.7939 52.5646C46.0844 52.4767 44.684 51.879 43.7201 50.8066C42.7926 49.7518 42.4107 48.9607 41.9015 46.939C41.6469 45.9545 41.4105 45.1282 41.3741 45.0931C41.2468 44.97 40.392 48.0114 40.2829 49.0134C39.9192 52.1251 41.4832 56.0455 44.1748 58.788L45.2296 59.8604L44.5749 59.7373C43.7201 59.5791 41.9924 58.6825 41.4105 58.1024C40.6284 57.3113 39.7009 55.6587 39.3736 54.4633C39.0462 53.3382 39.0462 53.3382 38.4824 53.4436C37.7004 53.5843 37.6459 53.6546 37.8277 54.5512C38.2278 56.5377 37.9005 61.0031 37.173 63.3413C36.7911 64.607 36.1728 65.9783 36.0091 65.9783C35.8454 65.9783 35.2271 64.607 34.8452 63.3413C34.1177 61.0031 33.7904 56.5377 34.1905 54.5512C34.3723 53.6546 34.3178 53.5843 33.5357 53.4436C32.972 53.3382 32.972 53.3557 32.6628 54.393C31.8444 57.2761 29.8621 59.2978 27.4251 59.7373L26.7886 59.8604L27.8616 58.7353C28.4617 58.12 29.2619 57.153 29.662 56.5729C31.1169 54.4281 31.9899 51.2285 31.7353 49.0134C31.6262 48.0114 30.7714 44.97 30.6441 45.0931C30.6077 45.1282 30.3713 45.9545 30.1167 46.939C29.8621 47.9235 29.4984 49.0486 29.2801 49.4529C28.2617 51.3692 26.5158 52.4416 24.2243 52.5646L22.8239 52.635L23.3695 52.2482C24.6426 51.334 26.2976 49.4705 27.0432 48.1169C28.3708 45.6908 29.2801 42.5088 29.5165 39.4674L29.6075 38.3775L28.3344 39.5202C25.7156 41.8583 22.7876 42.5791 19.4231 41.7001C18.5501 41.4716 18.2592 41.1903 18.8775 41.1903C19.4231 41.1727 21.2235 40.3816 21.9874 39.8014C22.6603 39.274 23.8242 37.4281 23.5878 37.2172C23.5514 37.1644 22.7694 37.2699 21.8964 37.4281C19.5686 37.8676 15.8404 37.8325 13.9126 37.3402C11.0028 36.6019 8.12933 34.8087 6.74716 32.8573L6.21975 32.1365L8.07477 32.1892C10.3663 32.2771 11.5666 31.9959 14.2581 30.7652L16.2587 29.8511L15.5312 29.728C15.1493 29.6577 14.4218 29.605 13.9126 29.5874C12.3849 29.5698 10.5299 29.1127 8.91134 28.3392C6.98358 27.4074 5.00126 25.5615 3.87371 23.6101C3.12806 22.3444 1.92776 19.1799 2.03688 18.8459C2.07325 18.758 2.41879 18.8987 2.81889 19.1624C5.18313 20.7094 8.293 20.9379 10.8027 19.7073L11.9121 19.1624L10.3299 18.7756C7.00177 17.9669 4.91033 16.4374 3.49179 13.818C2.32786 11.6732 1.98232 10.1086 1.8732 6.82109L1.80045 4.00827L2.21874 4.46535C2.45517 4.71147 3.23718 5.60806 3.98282 6.45191ZM38.1005 12.4467C39.8101 12.8687 41.4468 13.7477 42.6471 14.908C43.6474 15.8397 44.9204 17.6505 44.9204 18.1075C44.9204 18.1954 44.3748 18.6349 43.7019 19.092C42.1925 20.0765 39.8828 22.274 38.828 23.698C37.8095 25.0693 36.8457 26.8625 36.4456 28.0931C36.2637 28.6205 36.0637 29.06 36.0091 29.06C35.9363 29.06 35.7727 28.726 35.6454 28.304C35.3726 27.3899 34.1359 24.999 33.4448 24.0321C32.1172 22.151 29.9712 20.1293 27.9343 18.8283C27.3342 18.4591 26.8068 18.1251 26.7704 18.0724C26.5885 17.8966 28.0071 15.8749 28.9891 14.908C31.3352 12.6577 34.9543 11.6732 38.1005 12.4467ZM27.4433 20.1996C29.8803 21.7818 32.4991 24.7528 33.663 27.2492C34.2086 28.3919 34.9907 30.9762 34.8452 31.1169C34.8088 31.1696 34.245 31.0641 33.6085 30.9235C29.9348 30.0269 27.2251 27.425 26.2794 23.8738C25.8974 22.4323 25.952 19.5667 26.3521 19.5667C26.4067 19.5667 26.8977 19.848 27.4433 20.1996ZM45.5388 20.1293C45.7388 20.8676 45.6479 22.819 45.3751 23.8738C44.7568 26.2296 43.3018 28.2513 41.3377 29.5171C40.2283 30.2378 38.2824 30.9938 37.5549 30.9938H37.1367L37.3913 29.9214C37.9914 27.425 39.4645 24.8935 41.5741 22.7487C42.6653 21.6236 44.9932 19.7425 45.3024 19.7425C45.3751 19.7425 45.466 19.9183 45.5388 20.1293Z" fill="#705E1A"/>
</svg>
